<?xml version="1.0" standalone="no"?><!-- Generator: Gravit.io -->
<svg xmlns="http://www.w3.org/2000/svg" style="isolation:isolate" viewBox="0 0 1000 1000" width="1000" height="1000"><defs><clipPath id="_clipPath_dg43Y6s8laG88YldTrnDoFdyN1AlzVN7"><rect width="1000" height="1000"/></clipPath></defs><g clip-path="url(#_clipPath_dg43Y6s8laG88YldTrnDoFdyN1AlzVN7)"><g><g><line x1="158.254" y1="121.236" x2="81.137" y2="76.368"/><g><path d=" M 222.752 404.933 C 222.752 331.555 72.257 206.298 3.553 404.933 C -32.903 510.56 223.22 617.122 222.752 404.933 Z " fill="rgb(139,94,60)" vector-effect="non-scaling-stroke" stroke-width="2" stroke="rgb(96,57,19)" stroke-linejoin="miter" stroke-linecap="butt" stroke-miterlimit="10"/><path d=" M 190.971 418.02 C 190.971 368.945 83.474 285.285 34.4 418.02 C 8.227 488.594 191.438 559.635 190.971 418.02 Z " fill="rgb(169,124,80)"/></g><g><path d=" M 999.999 410.542 C 999.999 337.164 849.504 211.907 780.8 410.542 C 744.344 516.169 1000.467 622.731 999.999 410.542 Z " fill="rgb(139,94,60)" vector-effect="non-scaling-stroke" stroke-width="2" stroke="rgb(96,57,19)" stroke-linejoin="miter" stroke-linecap="butt" stroke-miterlimit="10"/><path d=" M 968.218 423.628 C 968.218 374.554 860.721 290.893 811.647 423.628 C 785.474 494.202 968.685 565.243 968.218 423.628 Z " fill="rgb(169,124,80)"/></g><g><path d=" M 849.037 785.845 C 1041.596 619.926 849.037 482.05 849.037 482.05 C 849.037 482.05 861.656 348.848 849.037 306.784 C 769.115 36.641 503.178 73.096 503.178 73.096 L 503.178 73.096 C 503.178 73.096 229.763 36.641 153.581 306.784 C 141.896 348.848 153.581 482.05 153.581 482.05 C 153.581 482.05 -10.001 598.895 153.581 785.845 C 154.048 785.845 475.603 1106.933 849.037 785.845 Z " fill="rgb(139,94,60)" vector-effect="non-scaling-stroke" stroke-width="2" stroke="rgb(96,57,19)" stroke-linejoin="miter" stroke-linecap="butt" stroke-miterlimit="10"/><path d=" M 784.539 745.183 C 937.371 607.775 784.539 492.8 784.539 492.8 C 784.539 492.8 794.354 382.032 784.539 347.446 C 720.976 123.105 510.189 153.485 510.189 153.485 L 510.189 153.485 C 510.189 153.485 292.859 123.105 232.567 347.446 C 223.22 382.499 232.567 492.8 232.567 492.8 C 232.567 492.8 102.637 590.014 232.567 745.183 C 232.567 745.183 487.755 1012.055 784.539 745.183 Z " fill="rgb(196,154,108)"/></g></g><g><circle vector-effect="non-scaling-stroke" cx="397.0837538418724" cy="367.0757997666775" r="98.61642878279429" fill="rgb(255,255,255)"/></g><path d=" M 786.408 568.048 C 786.408 568.048 763.04 555.429 732.193 569.917 C 700.878 584.406 700.878 584.406 700.878 584.406" fill="none" vector-effect="non-scaling-stroke" stroke-width="3" stroke="rgb(96,57,19)" stroke-linejoin="miter" stroke-linecap="butt" stroke-miterlimit="10"/><path d=" M 756.496 570.385 C 756.496 570.385 746.681 669.001 680.314 704.989 C 611.61 741.912 452.702 760.607 380.726 734.434 C 320.901 712.467 283.979 570.852 283.979 570.852" fill="none" vector-effect="non-scaling-stroke" stroke-width="3" stroke="rgb(96,57,19)" stroke-linejoin="miter" stroke-linecap="butt" stroke-miterlimit="10"/><path d=" M 589.175 561.972 C 589.175 561.972 564.405 513.365 531.688 513.832 C 498.037 514.299 473.733 538.603 473.733 538.603" fill="none" vector-effect="non-scaling-stroke" stroke-width="3" stroke="rgb(96,57,19)" stroke-linejoin="miter" stroke-linecap="butt" stroke-miterlimit="10"/><path d=" M 326.977 566.646 C 326.977 566.646 303.608 554.026 272.762 568.515 C 241.447 583.004 241.447 583.004 241.447 583.004" fill="none" vector-effect="non-scaling-stroke" stroke-width="3" stroke="rgb(96,57,19)" stroke-linejoin="miter" stroke-linecap="butt" stroke-miterlimit="10"/><circle vector-effect="non-scaling-stroke" cx="403.1596475583485" cy="392.3141275120368" r="54.68304344827931" fill="rgb(0,0,0)"/><g><circle vector-effect="non-scaling-stroke" cx="598.5229993650216" cy="365.2062940077616" r="98.61642878279429" fill="rgb(255,255,255)"/></g><circle vector-effect="non-scaling-stroke" cx="598.5229993650225" cy="392.3141275120368" r="54.68304344827925" fill="rgb(0,0,0)"/></g></g></svg>